<?xml version="1.0" standalone="no"?>
<!DOCTYPE svg PUBLIC "-//W3C//DTD SVG 20010904//EN"
 "http://www.w3.org/TR/2001/REC-SVG-20010904/DTD/svg10.dtd">
<svg version="1.0" xmlns="http://www.w3.org/2000/svg"
 width="497.000000pt" height="497.000000pt" viewBox="0 0 497.000000 497.000000"
 preserveAspectRatio="xMidYMid meet">
<metadata>
Created by potrace 1.14, written by Peter Selinger 2001-2017
</metadata>
<g transform="translate(0.000000,497.000000) scale(0.100000,-0.100000)"
fill="#000000" stroke="none">
<path d="M2531 3532 c-51 -130 -101 -255 -111 -277 -9 -22 -93 -232 -186 -467
-93 -236 -172 -428 -175 -428 -3 0 -32 37 -63 82 -78 109 -194 339 -361 713
-76 171 -155 346 -175 390 -20 44 -42 95 -49 113 -8 17 -16 32 -20 32 -3 0
-13 -17 -22 -38 -163 -384 -515 -1201 -524 -1214 -10 -15 -14 -14 -41 10 -16
15 -55 49 -86 75 l-57 48 -22 -43 c-12 -24 -63 -124 -114 -223 -194 -377 -325
-639 -310 -620 9 11 108 164 219 340 l203 320 48 0 48 0 46 -107 c26 -63 49
-104 54 -99 5 5 24 52 42 104 28 80 116 263 200 412 12 22 66 126 120 230 132
254 165 313 166 295 1 -19 5 -53 12 -105 3 -22 8 -69 12 -105 3 -36 8 -81 10
-100 6 -44 12 -95 20 -185 4 -38 9 -72 11 -74 2 -2 4 43 4 100 0 120 -12 101
127 197 l92 63 11 -43 c7 -24 23 -82 36 -129 14 -47 26 -95 29 -105 17 -85 35
-131 62 -158 17 -17 83 -82 147 -145 l116 -113 -32 -57 c-17 -31 -42 -75 -55
-98 l-24 -42 -140 110 c-133 105 -140 109 -148 87 -5 -13 -61 -143 -124 -290
-63 -148 -112 -268 -108 -268 3 0 50 63 104 140 55 77 103 137 109 134 5 -4
26 -42 45 -85 20 -44 39 -79 42 -79 4 0 22 39 40 88 18 48 38 97 44 109 l12
21 80 -38 c44 -21 83 -35 87 -31 3 3 56 112 116 241 61 129 131 279 156 333
25 53 46 102 46 107 0 28 63 170 91 203 35 43 64 47 99 15 25 -23 73 -124 85
-176 8 -37 17 -35 23 6 6 47 42 111 75 131 34 20 104 34 112 21 4 -7 10 -73
20 -230 3 -41 7 -97 10 -125 2 -27 6 -93 10 -145 3 -52 8 -120 10 -150 3 -30
7 -89 10 -130 16 -239 24 -332 28 -337 2 -2 59 80 126 182 l121 185 38 -43
c54 -62 196 -221 202 -227 3 -3 43 -48 90 -100 47 -52 87 -97 90 -100 3 -3 22
-24 42 -47 l37 -42 43 62 c24 34 79 115 122 180 62 90 82 115 91 105 6 -7 26
-51 44 -98 18 -47 39 -98 46 -115 7 -16 46 -111 85 -210 40 -99 78 -185 84
-192 6 -6 78 -46 160 -88 l149 -77 -20 33 c-47 80 -92 157 -115 199 -29 53
-181 316 -313 545 -51 88 -102 177 -113 198 l-20 38 -38 -48 c-22 -26 -43 -53
-49 -60 -5 -7 -15 -18 -20 -25 -6 -7 -21 -27 -35 -44 -14 -17 -36 -45 -50 -64
-41 -54 -78 -95 -83 -90 -2 3 -23 41 -47 85 -24 44 -55 103 -70 130 -15 28
-51 95 -80 150 -29 55 -64 119 -77 142 l-25 43 63 87 c35 49 68 93 74 99 78
83 191 208 193 215 9 24 31 2 67 -69 21 -42 45 -86 53 -97 12 -18 13 -16 8 20
-5 36 -8 68 -21 210 -3 22 -7 61 -10 86 -6 42 -4 50 23 80 17 19 32 32 34 29
3 -3 28 -63 57 -133 48 -119 88 -188 258 -450 39 -60 64 -83 221 -199 97 -72
186 -138 196 -147 18 -15 18 -14 -1 19 -12 19 -30 52 -42 73 -52 92 -66 117
-116 202 -28 50 -71 123 -94 163 l-42 72 -63 -45 -64 -45 -34 72 c-18 40 -97
214 -173 385 -77 172 -142 313 -145 313 -3 0 -111 -184 -240 -410 -129 -225
-237 -410 -240 -410 -3 0 -66 129 -140 288 -74 158 -166 355 -205 437 -39 83
-116 246 -171 362 -54 117 -101 213 -104 213 -3 0 -47 -107 -99 -238z"/>
</g>
</svg>
